<mxfile host="Electron" modified="2024-05-23T13:53:04.137Z" agent="Mozilla/5.0 (Windows NT 10.0; Win64; x64) AppleWebKit/537.36 (KHTML, like Gecko) draw.io/24.4.0 Chrome/120.0.6099.109 Electron/28.1.0 Safari/537.36" etag="w0mZMFjQdwStIMBCFCJz" version="24.4.0" type="device" pages="5">
  <diagram id="wNV9kwCmInu46yoBs2eH" name="Варианты использования">
    <mxGraphModel dx="1050" dy="621" grid="1" gridSize="10" guides="1" tooltips="1" connect="1" arrows="1" fold="1" page="1" pageScale="1" pageWidth="827" pageHeight="1169" math="0" shadow="0">
      <root>
        <mxCell id="0" />
        <mxCell id="1" parent="0" />
        <mxCell id="8y_LQ60KS55qP5UuEYyu-1" value="Курьер" style="shape=umlActor;verticalLabelPosition=bottom;verticalAlign=top;html=1;" parent="1" vertex="1">
          <mxGeometry x="178.5" y="440" width="30" height="60" as="geometry" />
        </mxCell>
        <mxCell id="8y_LQ60KS55qP5UuEYyu-2" value="Клиент" style="shape=umlActor;verticalLabelPosition=bottom;verticalAlign=top;html=1;outlineConnect=0;" parent="1" vertex="1">
          <mxGeometry x="630" y="360" width="30" height="60" as="geometry" />
        </mxCell>
        <mxCell id="8y_LQ60KS55qP5UuEYyu-3" value="Мобильное приложение&amp;nbsp;&lt;div&gt;доставки еды&lt;/div&gt;" style="shape=umlActor;verticalLabelPosition=bottom;verticalAlign=top;html=1;outlineConnect=0;" parent="1" vertex="1">
          <mxGeometry x="170" y="230" width="30" height="60" as="geometry" />
        </mxCell>
        <mxCell id="8y_LQ60KS55qP5UuEYyu-9" value="" style="shape=umlFrame;whiteSpace=wrap;html=1;pointerEvents=0;width=70;height=30;" parent="1" vertex="1">
          <mxGeometry x="120" y="140" width="570" height="510" as="geometry" />
        </mxCell>
        <mxCell id="8y_LQ60KS55qP5UuEYyu-10" value="" style="swimlane;startSize=0;" parent="1" vertex="1">
          <mxGeometry x="270" y="190" width="315" height="380" as="geometry">
            <mxRectangle x="270" y="190" width="50" height="40" as="alternateBounds" />
          </mxGeometry>
        </mxCell>
        <mxCell id="8y_LQ60KS55qP5UuEYyu-12" value="Мобильная система доставки еды&amp;nbsp;" style="text;html=1;align=center;verticalAlign=middle;whiteSpace=wrap;rounded=0;" parent="8y_LQ60KS55qP5UuEYyu-10" vertex="1">
          <mxGeometry x="85" y="10" width="145" height="30" as="geometry" />
        </mxCell>
        <mxCell id="8y_LQ60KS55qP5UuEYyu-20" value="" style="ellipse;whiteSpace=wrap;html=1;" parent="8y_LQ60KS55qP5UuEYyu-10" vertex="1">
          <mxGeometry x="40" y="100" width="90" height="60" as="geometry" />
        </mxCell>
        <mxCell id="8y_LQ60KS55qP5UuEYyu-29" value="Подбор курьера и сборка заказа" style="text;html=1;align=center;verticalAlign=middle;whiteSpace=wrap;rounded=0;fontSize=9;" parent="8y_LQ60KS55qP5UuEYyu-10" vertex="1">
          <mxGeometry x="35" y="115" width="100" height="30" as="geometry" />
        </mxCell>
        <mxCell id="8y_LQ60KS55qP5UuEYyu-36" value="" style="ellipse;whiteSpace=wrap;html=1;" parent="8y_LQ60KS55qP5UuEYyu-10" vertex="1">
          <mxGeometry x="135" y="55" width="90" height="60" as="geometry" />
        </mxCell>
        <mxCell id="8y_LQ60KS55qP5UuEYyu-28" value="Оформление&amp;nbsp;" style="text;html=1;align=center;verticalAlign=middle;whiteSpace=wrap;rounded=0;" parent="8y_LQ60KS55qP5UuEYyu-10" vertex="1">
          <mxGeometry x="150" y="70" width="60" height="30" as="geometry" />
        </mxCell>
        <mxCell id="8y_LQ60KS55qP5UuEYyu-35" value="" style="ellipse;whiteSpace=wrap;html=1;" parent="8y_LQ60KS55qP5UuEYyu-10" vertex="1">
          <mxGeometry x="170" y="180" width="90" height="60" as="geometry" />
        </mxCell>
        <mxCell id="8y_LQ60KS55qP5UuEYyu-32" value="Выбор товаров в заказ" style="text;html=1;align=center;verticalAlign=middle;whiteSpace=wrap;rounded=0;fontSize=11;" parent="8y_LQ60KS55qP5UuEYyu-10" vertex="1">
          <mxGeometry x="192.5" y="200" width="45" height="20" as="geometry" />
        </mxCell>
        <mxCell id="8y_LQ60KS55qP5UuEYyu-34" value="" style="ellipse;whiteSpace=wrap;html=1;" parent="8y_LQ60KS55qP5UuEYyu-10" vertex="1">
          <mxGeometry x="14" y="210" width="90" height="60" as="geometry" />
        </mxCell>
        <mxCell id="8y_LQ60KS55qP5UuEYyu-31" value="Доставка" style="text;html=1;align=center;verticalAlign=middle;whiteSpace=wrap;rounded=0;" parent="8y_LQ60KS55qP5UuEYyu-10" vertex="1">
          <mxGeometry x="29" y="225" width="60" height="30" as="geometry" />
        </mxCell>
        <mxCell id="8y_LQ60KS55qP5UuEYyu-33" value="" style="ellipse;whiteSpace=wrap;html=1;" parent="8y_LQ60KS55qP5UuEYyu-10" vertex="1">
          <mxGeometry x="120" y="270" width="90" height="60" as="geometry" />
        </mxCell>
        <mxCell id="8y_LQ60KS55qP5UuEYyu-41" value="Оплата" style="text;html=1;align=center;verticalAlign=middle;whiteSpace=wrap;rounded=0;" parent="8y_LQ60KS55qP5UuEYyu-10" vertex="1">
          <mxGeometry x="135" y="285" width="60" height="30" as="geometry" />
        </mxCell>
        <mxCell id="8y_LQ60KS55qP5UuEYyu-46" value="&lt;font style=&quot;font-size: 10px;&quot;&gt;подтверждение заказа&lt;/font&gt;" style="text;html=1;align=center;verticalAlign=middle;whiteSpace=wrap;rounded=0;rotation=0;" parent="8y_LQ60KS55qP5UuEYyu-10" vertex="1">
          <mxGeometry x="20" y="50" width="110" height="30" as="geometry" />
        </mxCell>
        <mxCell id="8y_LQ60KS55qP5UuEYyu-51" value="зависит" style="html=1;verticalAlign=bottom;endArrow=open;dashed=1;endSize=8;curved=0;rounded=0;entryX=0.5;entryY=0;entryDx=0;entryDy=0;exitX=0.5;exitY=1;exitDx=0;exitDy=0;" parent="8y_LQ60KS55qP5UuEYyu-10" source="8y_LQ60KS55qP5UuEYyu-20" target="8y_LQ60KS55qP5UuEYyu-34" edge="1">
          <mxGeometry relative="1" as="geometry">
            <mxPoint x="173.5" y="70" as="sourcePoint" />
            <mxPoint x="93.5" y="70" as="targetPoint" />
          </mxGeometry>
        </mxCell>
        <mxCell id="8y_LQ60KS55qP5UuEYyu-52" value="зависит" style="html=1;verticalAlign=bottom;endArrow=open;dashed=1;endSize=8;curved=0;rounded=0;entryX=0.556;entryY=0.917;entryDx=0;entryDy=0;exitX=0.5;exitY=0;exitDx=0;exitDy=0;entryPerimeter=0;" parent="8y_LQ60KS55qP5UuEYyu-10" source="8y_LQ60KS55qP5UuEYyu-35" target="8y_LQ60KS55qP5UuEYyu-36" edge="1">
          <mxGeometry relative="1" as="geometry">
            <mxPoint x="205" y="280" as="sourcePoint" />
            <mxPoint x="135" y="280" as="targetPoint" />
          </mxGeometry>
        </mxCell>
        <mxCell id="8y_LQ60KS55qP5UuEYyu-45" value="&lt;font style=&quot;font-size: 10px;&quot;&gt;прием оплаты&lt;/font&gt;" style="text;html=1;align=center;verticalAlign=middle;whiteSpace=wrap;rounded=0;rotation=15;" parent="8y_LQ60KS55qP5UuEYyu-10" vertex="1">
          <mxGeometry x="-6" y="280" width="110" height="30" as="geometry" />
        </mxCell>
        <mxCell id="8y_LQ60KS55qP5UuEYyu-38" value="" style="endArrow=none;html=1;rounded=0;exitX=1;exitY=0.5;exitDx=0;exitDy=0;entryX=0;entryY=0.3333333333333333;entryDx=0;entryDy=0;entryPerimeter=0;" parent="1" source="8y_LQ60KS55qP5UuEYyu-36" target="8y_LQ60KS55qP5UuEYyu-2" edge="1">
          <mxGeometry width="50" height="50" relative="1" as="geometry">
            <mxPoint x="230" y="490" as="sourcePoint" />
            <mxPoint x="306" y="490" as="targetPoint" />
          </mxGeometry>
        </mxCell>
        <mxCell id="8y_LQ60KS55qP5UuEYyu-40" value="" style="endArrow=none;html=1;rounded=0;entryX=1;entryY=0.3333333333333333;entryDx=0;entryDy=0;entryPerimeter=0;exitX=0;exitY=0.5;exitDx=0;exitDy=0;" parent="1" source="8y_LQ60KS55qP5UuEYyu-36" target="8y_LQ60KS55qP5UuEYyu-3" edge="1">
          <mxGeometry width="50" height="50" relative="1" as="geometry">
            <mxPoint x="510" y="420" as="sourcePoint" />
            <mxPoint x="560" y="370" as="targetPoint" />
          </mxGeometry>
        </mxCell>
        <mxCell id="8y_LQ60KS55qP5UuEYyu-42" value="" style="endArrow=none;html=1;rounded=0;exitX=0;exitY=0.5;exitDx=0;exitDy=0;entryX=1;entryY=0.3333333333333333;entryDx=0;entryDy=0;entryPerimeter=0;" parent="1" source="8y_LQ60KS55qP5UuEYyu-34" target="8y_LQ60KS55qP5UuEYyu-1" edge="1">
          <mxGeometry width="50" height="50" relative="1" as="geometry">
            <mxPoint x="170" y="220" as="sourcePoint" />
            <mxPoint x="170" y="460" as="targetPoint" />
          </mxGeometry>
        </mxCell>
        <mxCell id="8y_LQ60KS55qP5UuEYyu-43" value="" style="endArrow=none;html=1;rounded=0;exitX=1;exitY=0.5;exitDx=0;exitDy=0;entryX=0;entryY=0.3333333333333333;entryDx=0;entryDy=0;entryPerimeter=0;" parent="1" source="8y_LQ60KS55qP5UuEYyu-33" target="8y_LQ60KS55qP5UuEYyu-2" edge="1">
          <mxGeometry width="50" height="50" relative="1" as="geometry">
            <mxPoint x="300" y="380" as="sourcePoint" />
            <mxPoint x="220" y="480" as="targetPoint" />
          </mxGeometry>
        </mxCell>
        <mxCell id="8y_LQ60KS55qP5UuEYyu-44" value="" style="endArrow=none;html=1;rounded=0;exitX=0;exitY=0.5;exitDx=0;exitDy=0;" parent="1" source="8y_LQ60KS55qP5UuEYyu-33" edge="1">
          <mxGeometry width="50" height="50" relative="1" as="geometry">
            <mxPoint x="310" y="310" as="sourcePoint" />
            <mxPoint x="210" y="460" as="targetPoint" />
          </mxGeometry>
        </mxCell>
        <mxCell id="uCddsSFv_PdgQjuDuoes-4" value="" style="endArrow=none;html=1;rounded=0;entryX=1;entryY=0.5;entryDx=0;entryDy=0;exitX=0;exitY=0.3333333333333333;exitDx=0;exitDy=0;exitPerimeter=0;" parent="1" source="8y_LQ60KS55qP5UuEYyu-2" target="8y_LQ60KS55qP5UuEYyu-35" edge="1">
          <mxGeometry width="50" height="50" relative="1" as="geometry">
            <mxPoint x="430" y="440" as="sourcePoint" />
            <mxPoint x="480" y="390" as="targetPoint" />
          </mxGeometry>
        </mxCell>
        <mxCell id="8y_LQ60KS55qP5UuEYyu-39" value="" style="endArrow=none;html=1;rounded=0;exitX=1;exitY=0.3333333333333333;exitDx=0;exitDy=0;exitPerimeter=0;entryX=0.005;entryY=0.585;entryDx=0;entryDy=0;entryPerimeter=0;" parent="1" source="8y_LQ60KS55qP5UuEYyu-3" target="8y_LQ60KS55qP5UuEYyu-20" edge="1">
          <mxGeometry width="50" height="50" relative="1" as="geometry">
            <mxPoint x="620" y="370" as="sourcePoint" />
            <mxPoint x="410" y="320" as="targetPoint" />
          </mxGeometry>
        </mxCell>
      </root>
    </mxGraphModel>
  </diagram>
  <diagram id="4r8OwJRfkJsXzGN_ZaWj" name="Последовательность ">
    <mxGraphModel dx="1050" dy="621" grid="1" gridSize="10" guides="1" tooltips="1" connect="1" arrows="1" fold="1" page="1" pageScale="1" pageWidth="1169" pageHeight="1654" math="0" shadow="0">
      <root>
        <mxCell id="0" />
        <mxCell id="1" parent="0" />
        <mxCell id="vL4cAA8MUN_c-u1Q_6qU-2" value=":Клиент" style="html=1;whiteSpace=wrap;" parent="1" vertex="1">
          <mxGeometry x="20" y="320" width="110" height="50" as="geometry" />
        </mxCell>
        <mxCell id="vL4cAA8MUN_c-u1Q_6qU-3" value=":Курьер" style="html=1;whiteSpace=wrap;" parent="1" vertex="1">
          <mxGeometry x="820" y="320" width="110" height="50" as="geometry" />
        </mxCell>
        <mxCell id="vL4cAA8MUN_c-u1Q_6qU-4" value=":Приложение" style="html=1;whiteSpace=wrap;" parent="1" vertex="1">
          <mxGeometry x="380" y="320" width="110" height="50" as="geometry" />
        </mxCell>
        <mxCell id="vL4cAA8MUN_c-u1Q_6qU-5" value="" style="shape=umlActor;verticalLabelPosition=bottom;verticalAlign=top;html=1;" parent="1" vertex="1">
          <mxGeometry x="60" y="250" width="30" height="60" as="geometry" />
        </mxCell>
        <mxCell id="vL4cAA8MUN_c-u1Q_6qU-7" value="" style="shape=umlActor;verticalLabelPosition=bottom;verticalAlign=top;html=1;" parent="1" vertex="1">
          <mxGeometry x="860" y="250" width="30" height="60" as="geometry" />
        </mxCell>
        <mxCell id="vL4cAA8MUN_c-u1Q_6qU-8" value="" style="endArrow=none;dashed=1;html=1;rounded=0;" parent="1" edge="1">
          <mxGeometry width="50" height="50" relative="1" as="geometry">
            <mxPoint x="80" y="620" as="sourcePoint" />
            <mxPoint x="80" y="370" as="targetPoint" />
          </mxGeometry>
        </mxCell>
        <mxCell id="vL4cAA8MUN_c-u1Q_6qU-9" value="" style="endArrow=none;dashed=1;html=1;rounded=0;" parent="1" edge="1">
          <mxGeometry width="50" height="50" relative="1" as="geometry">
            <mxPoint x="880" y="620" as="sourcePoint" />
            <mxPoint x="880" y="370" as="targetPoint" />
          </mxGeometry>
        </mxCell>
        <mxCell id="vL4cAA8MUN_c-u1Q_6qU-10" value="" style="endArrow=none;dashed=1;html=1;rounded=0;" parent="1" edge="1">
          <mxGeometry width="50" height="50" relative="1" as="geometry">
            <mxPoint x="440" y="620" as="sourcePoint" />
            <mxPoint x="440" y="370" as="targetPoint" />
          </mxGeometry>
        </mxCell>
        <mxCell id="vL4cAA8MUN_c-u1Q_6qU-11" value="" style="endArrow=classic;html=1;rounded=0;" parent="1" edge="1">
          <mxGeometry width="50" height="50" relative="1" as="geometry">
            <mxPoint x="80" y="420" as="sourcePoint" />
            <mxPoint x="440" y="420" as="targetPoint" />
          </mxGeometry>
        </mxCell>
        <mxCell id="vL4cAA8MUN_c-u1Q_6qU-12" value="Оплата заказа" style="text;html=1;align=center;verticalAlign=middle;whiteSpace=wrap;rounded=0;" parent="1" vertex="1">
          <mxGeometry x="220" y="400" width="100" height="30" as="geometry" />
        </mxCell>
        <mxCell id="vL4cAA8MUN_c-u1Q_6qU-15" value="Подготовка и поставновка задачи" style="text;html=1;align=center;verticalAlign=middle;whiteSpace=wrap;rounded=0;fontSize=11;" parent="1" vertex="1">
          <mxGeometry x="570" y="440" width="200" height="30" as="geometry" />
        </mxCell>
        <mxCell id="vL4cAA8MUN_c-u1Q_6qU-16" value="" style="endArrow=classic;html=1;rounded=0;" parent="1" edge="1">
          <mxGeometry width="50" height="50" relative="1" as="geometry">
            <mxPoint x="880" y="490" as="sourcePoint" />
            <mxPoint x="80" y="490" as="targetPoint" />
          </mxGeometry>
        </mxCell>
        <mxCell id="vL4cAA8MUN_c-u1Q_6qU-17" value="Доставка" style="text;html=1;align=center;verticalAlign=middle;whiteSpace=wrap;rounded=0;fontSize=11;" parent="1" vertex="1">
          <mxGeometry x="280" y="470" width="170" height="30" as="geometry" />
        </mxCell>
        <mxCell id="vL4cAA8MUN_c-u1Q_6qU-18" value="Закрытие задачи" style="text;html=1;align=center;verticalAlign=middle;whiteSpace=wrap;rounded=0;fontSize=11;" parent="1" vertex="1">
          <mxGeometry x="590" y="520" width="170" height="30" as="geometry" />
        </mxCell>
        <mxCell id="vL4cAA8MUN_c-u1Q_6qU-20" value="" style="endArrow=classic;html=1;rounded=0;" parent="1" edge="1">
          <mxGeometry width="50" height="50" relative="1" as="geometry">
            <mxPoint x="80" y="580" as="sourcePoint" />
            <mxPoint x="440" y="580" as="targetPoint" />
          </mxGeometry>
        </mxCell>
        <mxCell id="vL4cAA8MUN_c-u1Q_6qU-22" value="Подтверждение успешного получения заказа" style="text;html=1;align=center;verticalAlign=middle;whiteSpace=wrap;rounded=0;fontSize=11;" parent="1" vertex="1">
          <mxGeometry x="130" y="560" width="260" height="30" as="geometry" />
        </mxCell>
        <mxCell id="S2cqv--Z5chIp6R6bUWt-1" value="&lt;div&gt;&lt;br&gt;&lt;/div&gt;&lt;div&gt;&lt;br&gt;&lt;/div&gt;" style="shape=umlActor;verticalLabelPosition=bottom;verticalAlign=top;html=1;outlineConnect=0;" parent="1" vertex="1">
          <mxGeometry x="420" y="250" width="30" height="60" as="geometry" />
        </mxCell>
        <mxCell id="S2cqv--Z5chIp6R6bUWt-3" value="" style="endArrow=classic;html=1;rounded=0;" parent="1" edge="1">
          <mxGeometry width="50" height="50" relative="1" as="geometry">
            <mxPoint x="880" y="540" as="sourcePoint" />
            <mxPoint x="440" y="540" as="targetPoint" />
          </mxGeometry>
        </mxCell>
        <mxCell id="S2cqv--Z5chIp6R6bUWt-4" value="" style="endArrow=classic;html=1;rounded=0;" parent="1" edge="1">
          <mxGeometry width="50" height="50" relative="1" as="geometry">
            <mxPoint x="440" y="460" as="sourcePoint" />
            <mxPoint x="880" y="460" as="targetPoint" />
          </mxGeometry>
        </mxCell>
      </root>
    </mxGraphModel>
  </diagram>
  <diagram name="Состояния заказа " id="BanBGNF2Pb0GykZZQIJD">
    <mxGraphModel dx="1050" dy="621" grid="1" gridSize="10" guides="1" tooltips="1" connect="1" arrows="1" fold="1" page="1" pageScale="1" pageWidth="1169" pageHeight="1654" math="0" shadow="0">
      <root>
        <mxCell id="0" />
        <mxCell id="1" parent="0" />
        <mxCell id="2jJZK-FFE5HAWp4t9ocm-4" value="" style="endArrow=classic;html=1;rounded=0;" parent="1" edge="1">
          <mxGeometry width="50" height="50" relative="1" as="geometry">
            <mxPoint x="53.75999999999999" y="320" as="sourcePoint" />
            <mxPoint x="53.75999999999999" y="360" as="targetPoint" />
          </mxGeometry>
        </mxCell>
        <mxCell id="2jJZK-FFE5HAWp4t9ocm-2" value="" style="shape=waypoint;sketch=0;fillStyle=solid;size=6;pointerEvents=1;points=[];fillColor=none;resizable=0;rotatable=0;perimeter=centerPerimeter;snapToPoint=1;strokeWidth=5;" parent="1" vertex="1">
          <mxGeometry x="44" y="310" width="20" height="20" as="geometry" />
        </mxCell>
        <mxCell id="3aTIBhaCEiMKxS0Oy4Zn-21" value="" style="edgeStyle=orthogonalEdgeStyle;rounded=0;orthogonalLoop=1;jettySize=auto;html=1;" parent="1" source="2jJZK-FFE5HAWp4t9ocm-6" target="3aTIBhaCEiMKxS0Oy4Zn-7" edge="1">
          <mxGeometry relative="1" as="geometry" />
        </mxCell>
        <mxCell id="2jJZK-FFE5HAWp4t9ocm-6" value="" style="rounded=1;whiteSpace=wrap;html=1;" parent="1" vertex="1">
          <mxGeometry x="14" y="360" width="80" height="40" as="geometry" />
        </mxCell>
        <mxCell id="2jJZK-FFE5HAWp4t9ocm-7" value="Оформлен&amp;nbsp;" style="text;html=1;align=center;verticalAlign=middle;whiteSpace=wrap;rounded=0;" parent="1" vertex="1">
          <mxGeometry x="24" y="365" width="60" height="30" as="geometry" />
        </mxCell>
        <mxCell id="2jJZK-FFE5HAWp4t9ocm-19" value="Завершен" style="rounded=1;whiteSpace=wrap;html=1;" parent="1" vertex="1">
          <mxGeometry x="870" y="360" width="80" height="40" as="geometry" />
        </mxCell>
        <mxCell id="2jJZK-FFE5HAWp4t9ocm-21" value="" style="endArrow=classic;html=1;rounded=0;exitX=0.5;exitY=0;exitDx=0;exitDy=0;" parent="1" source="2jJZK-FFE5HAWp4t9ocm-19" edge="1">
          <mxGeometry width="50" height="50" relative="1" as="geometry">
            <mxPoint x="691.8" y="270" as="sourcePoint" />
            <mxPoint x="910" y="330" as="targetPoint" />
          </mxGeometry>
        </mxCell>
        <mxCell id="2jJZK-FFE5HAWp4t9ocm-22" value="" style="ellipse;shape=doubleEllipse;whiteSpace=wrap;html=1;aspect=fixed;" parent="1" vertex="1">
          <mxGeometry x="900" y="310" width="20" height="20" as="geometry" />
        </mxCell>
        <mxCell id="2jJZK-FFE5HAWp4t9ocm-23" value="" style="shape=waypoint;sketch=0;fillStyle=solid;size=6;pointerEvents=1;points=[];fillColor=none;resizable=0;rotatable=0;perimeter=centerPerimeter;snapToPoint=1;strokeWidth=5;" parent="1" vertex="1">
          <mxGeometry x="900" y="310" width="20" height="20" as="geometry" />
        </mxCell>
        <mxCell id="3aTIBhaCEiMKxS0Oy4Zn-15" value="" style="edgeStyle=orthogonalEdgeStyle;rounded=0;orthogonalLoop=1;jettySize=auto;html=1;" parent="1" source="3aTIBhaCEiMKxS0Oy4Zn-7" target="3aTIBhaCEiMKxS0Oy4Zn-8" edge="1">
          <mxGeometry relative="1" as="geometry" />
        </mxCell>
        <mxCell id="3aTIBhaCEiMKxS0Oy4Zn-7" value="Подтверждён" style="rounded=1;whiteSpace=wrap;html=1;" parent="1" vertex="1">
          <mxGeometry x="180" y="360" width="80" height="40" as="geometry" />
        </mxCell>
        <mxCell id="3aTIBhaCEiMKxS0Oy4Zn-16" value="" style="edgeStyle=orthogonalEdgeStyle;rounded=0;orthogonalLoop=1;jettySize=auto;html=1;" parent="1" source="3aTIBhaCEiMKxS0Oy4Zn-8" target="3aTIBhaCEiMKxS0Oy4Zn-10" edge="1">
          <mxGeometry relative="1" as="geometry" />
        </mxCell>
        <mxCell id="3aTIBhaCEiMKxS0Oy4Zn-8" value="Приготовлен" style="rounded=1;whiteSpace=wrap;html=1;" parent="1" vertex="1">
          <mxGeometry x="350" y="360" width="80" height="40" as="geometry" />
        </mxCell>
        <mxCell id="ay2xQB9_DEju5FG8jDsg-7" value="" style="edgeStyle=orthogonalEdgeStyle;rounded=0;orthogonalLoop=1;jettySize=auto;html=1;" parent="1" source="3aTIBhaCEiMKxS0Oy4Zn-10" target="3aTIBhaCEiMKxS0Oy4Zn-12" edge="1">
          <mxGeometry relative="1" as="geometry" />
        </mxCell>
        <mxCell id="3aTIBhaCEiMKxS0Oy4Zn-10" value="Передан курьеру" style="rounded=1;whiteSpace=wrap;html=1;" parent="1" vertex="1">
          <mxGeometry x="530" y="360" width="80" height="40" as="geometry" />
        </mxCell>
        <mxCell id="3aTIBhaCEiMKxS0Oy4Zn-19" value="" style="edgeStyle=orthogonalEdgeStyle;rounded=0;orthogonalLoop=1;jettySize=auto;html=1;" parent="1" source="3aTIBhaCEiMKxS0Oy4Zn-12" target="2jJZK-FFE5HAWp4t9ocm-19" edge="1">
          <mxGeometry relative="1" as="geometry" />
        </mxCell>
        <mxCell id="3aTIBhaCEiMKxS0Oy4Zn-12" value="Доставлен" style="rounded=1;whiteSpace=wrap;html=1;" parent="1" vertex="1">
          <mxGeometry x="700" y="360" width="80" height="40" as="geometry" />
        </mxCell>
        <mxCell id="ay2xQB9_DEju5FG8jDsg-3" value="&lt;font style=&quot;font-size: 10px;&quot;&gt;Подтверждение&lt;/font&gt;" style="text;html=1;align=center;verticalAlign=middle;whiteSpace=wrap;rounded=0;" parent="1" vertex="1">
          <mxGeometry x="110" y="350" width="60" height="30" as="geometry" />
        </mxCell>
        <mxCell id="ay2xQB9_DEju5FG8jDsg-4" value="&lt;font style=&quot;font-size: 10px;&quot;&gt;Приготовление&lt;/font&gt;" style="text;html=1;align=center;verticalAlign=middle;whiteSpace=wrap;rounded=0;" parent="1" vertex="1">
          <mxGeometry x="270" y="350" width="60" height="30" as="geometry" />
        </mxCell>
        <mxCell id="ay2xQB9_DEju5FG8jDsg-5" value="&lt;font style=&quot;font-size: 10px;&quot;&gt;Ожидает курьера&lt;/font&gt;" style="text;html=1;align=center;verticalAlign=middle;whiteSpace=wrap;rounded=0;" parent="1" vertex="1">
          <mxGeometry x="450" y="350" width="60" height="30" as="geometry" />
        </mxCell>
        <mxCell id="ay2xQB9_DEju5FG8jDsg-6" value="&lt;font style=&quot;font-size: 10px;&quot;&gt;Завершение заказа&lt;/font&gt;" style="text;html=1;align=center;verticalAlign=middle;whiteSpace=wrap;rounded=0;" parent="1" vertex="1">
          <mxGeometry x="790" y="350" width="60" height="30" as="geometry" />
        </mxCell>
        <mxCell id="ay2xQB9_DEju5FG8jDsg-8" value="&lt;font style=&quot;font-size: 10px;&quot;&gt;В пути&lt;/font&gt;" style="text;html=1;align=center;verticalAlign=middle;whiteSpace=wrap;rounded=0;" parent="1" vertex="1">
          <mxGeometry x="620" y="350" width="60" height="30" as="geometry" />
        </mxCell>
      </root>
    </mxGraphModel>
  </diagram>
  <diagram id="f2T0Bu0CJsvNI77l1Ars" name="Деятельность">
    <mxGraphModel dx="1050" dy="621" grid="1" gridSize="10" guides="1" tooltips="1" connect="1" arrows="1" fold="1" page="1" pageScale="1" pageWidth="827" pageHeight="1169" math="0" shadow="0">
      <root>
        <mxCell id="0" />
        <mxCell id="1" parent="0" />
        <mxCell id="da8WZ0yRhRTzq29A2Kj0-1" value="Добавление блюд в корзину заказа&amp;nbsp;" style="rounded=1;whiteSpace=wrap;html=1;" parent="1" vertex="1">
          <mxGeometry x="369" y="276" width="120" height="60" as="geometry" />
        </mxCell>
        <mxCell id="da8WZ0yRhRTzq29A2Kj0-3" value="" style="endArrow=classic;html=1;rounded=0;exitX=0.5;exitY=1;exitDx=0;exitDy=0;" parent="1" source="da8WZ0yRhRTzq29A2Kj0-1" edge="1">
          <mxGeometry width="50" height="50" relative="1" as="geometry">
            <mxPoint x="409" y="466" as="sourcePoint" />
            <mxPoint x="429" y="416" as="targetPoint" />
          </mxGeometry>
        </mxCell>
        <mxCell id="da8WZ0yRhRTzq29A2Kj0-5" value="Подтверждение заказа" style="rounded=1;whiteSpace=wrap;html=1;" parent="1" vertex="1">
          <mxGeometry x="369" y="416" width="120" height="60" as="geometry" />
        </mxCell>
        <mxCell id="da8WZ0yRhRTzq29A2Kj0-6" value="" style="endArrow=classic;html=1;rounded=0;exitX=0.5;exitY=1;exitDx=0;exitDy=0;" parent="1" source="da8WZ0yRhRTzq29A2Kj0-5" edge="1">
          <mxGeometry width="50" height="50" relative="1" as="geometry">
            <mxPoint x="409" y="466" as="sourcePoint" />
            <mxPoint x="429" y="556" as="targetPoint" />
          </mxGeometry>
        </mxCell>
        <mxCell id="da8WZ0yRhRTzq29A2Kj0-7" value="" style="html=1;whiteSpace=wrap;aspect=fixed;shape=isoRectangle;rotation=90;" parent="1" vertex="1">
          <mxGeometry x="400.66999999999996" y="566" width="56.67" height="34" as="geometry" />
        </mxCell>
        <mxCell id="da8WZ0yRhRTzq29A2Kj0-8" value="Добавление/Правка блюд" style="rounded=1;whiteSpace=wrap;html=1;" parent="1" vertex="1">
          <mxGeometry x="670" y="553" width="120" height="60" as="geometry" />
        </mxCell>
        <mxCell id="da8WZ0yRhRTzq29A2Kj0-9" value="Оплата заказа" style="rounded=1;whiteSpace=wrap;html=1;" parent="1" vertex="1">
          <mxGeometry x="60" y="554.5" width="120" height="60" as="geometry" />
        </mxCell>
        <mxCell id="da8WZ0yRhRTzq29A2Kj0-10" value="" style="endArrow=classic;html=1;rounded=0;exitX=0.5;exitY=0.941;exitDx=0;exitDy=0;entryX=1;entryY=0.5;entryDx=0;entryDy=0;exitPerimeter=0;" parent="1" source="da8WZ0yRhRTzq29A2Kj0-7" target="da8WZ0yRhRTzq29A2Kj0-9" edge="1">
          <mxGeometry width="50" height="50" relative="1" as="geometry">
            <mxPoint x="439" y="486" as="sourcePoint" />
            <mxPoint x="439" y="566" as="targetPoint" />
          </mxGeometry>
        </mxCell>
        <mxCell id="da8WZ0yRhRTzq29A2Kj0-11" value="" style="endArrow=classic;html=1;rounded=0;exitX=0.5;exitY=0.059;exitDx=0;exitDy=0;entryX=0;entryY=0.5;entryDx=0;entryDy=0;exitPerimeter=0;" parent="1" source="da8WZ0yRhRTzq29A2Kj0-7" target="da8WZ0yRhRTzq29A2Kj0-8" edge="1">
          <mxGeometry width="50" height="50" relative="1" as="geometry">
            <mxPoint x="449" y="496" as="sourcePoint" />
            <mxPoint x="449" y="576" as="targetPoint" />
          </mxGeometry>
        </mxCell>
        <mxCell id="qBgJKQQ8QN35u_Wdl3RI-1" value="[Верно составленный заказ]" style="text;html=1;align=center;verticalAlign=middle;whiteSpace=wrap;rounded=0;" parent="1" vertex="1">
          <mxGeometry x="220" y="555" width="160" height="30" as="geometry" />
        </mxCell>
        <mxCell id="qBgJKQQ8QN35u_Wdl3RI-3" value="[Неверно составленный заказ]" style="text;html=1;align=center;verticalAlign=middle;whiteSpace=wrap;rounded=0;" parent="1" vertex="1">
          <mxGeometry x="470" y="555" width="181" height="30" as="geometry" />
        </mxCell>
        <mxCell id="qBgJKQQ8QN35u_Wdl3RI-4" value="" style="endArrow=classic;html=1;rounded=0;exitX=0.5;exitY=0;exitDx=0;exitDy=0;entryX=1;entryY=0.5;entryDx=0;entryDy=0;" parent="1" source="da8WZ0yRhRTzq29A2Kj0-8" target="da8WZ0yRhRTzq29A2Kj0-5" edge="1">
          <mxGeometry width="50" height="50" relative="1" as="geometry">
            <mxPoint x="409" y="516" as="sourcePoint" />
            <mxPoint x="579" y="446" as="targetPoint" />
            <Array as="points">
              <mxPoint x="730" y="450" />
            </Array>
          </mxGeometry>
        </mxCell>
        <mxCell id="Qs16zOOITwdM2hp1F24_-4" value="" style="edgeStyle=orthogonalEdgeStyle;rounded=0;orthogonalLoop=1;jettySize=auto;html=1;" parent="1" source="qBgJKQQ8QN35u_Wdl3RI-5" target="qBgJKQQ8QN35u_Wdl3RI-8" edge="1">
          <mxGeometry relative="1" as="geometry" />
        </mxCell>
        <mxCell id="qBgJKQQ8QN35u_Wdl3RI-5" value="Постановка задачи для курьера" style="rounded=1;whiteSpace=wrap;html=1;" parent="1" vertex="1">
          <mxGeometry x="609" y="690" width="120" height="60" as="geometry" />
        </mxCell>
        <mxCell id="qBgJKQQ8QN35u_Wdl3RI-6" value="" style="endArrow=classic;html=1;rounded=0;exitX=0.5;exitY=1;exitDx=0;exitDy=0;entryX=0.004;entryY=0.516;entryDx=0;entryDy=0;entryPerimeter=0;" parent="1" target="qBgJKQQ8QN35u_Wdl3RI-20" edge="1">
          <mxGeometry width="50" height="50" relative="1" as="geometry">
            <mxPoint x="119.37" y="613" as="sourcePoint" />
            <mxPoint x="119.37" y="693" as="targetPoint" />
            <Array as="points">
              <mxPoint x="120" y="689" />
            </Array>
          </mxGeometry>
        </mxCell>
        <mxCell id="Qs16zOOITwdM2hp1F24_-12" style="edgeStyle=orthogonalEdgeStyle;rounded=0;orthogonalLoop=1;jettySize=auto;html=1;entryX=0.5;entryY=0;entryDx=0;entryDy=0;" parent="1" source="qBgJKQQ8QN35u_Wdl3RI-8" target="Qs16zOOITwdM2hp1F24_-7" edge="1">
          <mxGeometry relative="1" as="geometry" />
        </mxCell>
        <mxCell id="qBgJKQQ8QN35u_Wdl3RI-8" value="Доставка заказа" style="rounded=1;whiteSpace=wrap;html=1;" parent="1" vertex="1">
          <mxGeometry x="610" y="800" width="119" height="60" as="geometry" />
        </mxCell>
        <mxCell id="qBgJKQQ8QN35u_Wdl3RI-10" value="" style="html=1;whiteSpace=wrap;aspect=fixed;shape=isoRectangle;rotation=90;" parent="1" vertex="1">
          <mxGeometry x="441.66999999999996" y="1000" width="56.67" height="34" as="geometry" />
        </mxCell>
        <mxCell id="qBgJKQQ8QN35u_Wdl3RI-11" value="" style="endArrow=classic;html=1;rounded=0;exitX=1.012;exitY=0.5;exitDx=0;exitDy=0;exitPerimeter=0;entryX=0.5;entryY=0;entryDx=0;entryDy=0;" parent="1" target="qBgJKQQ8QN35u_Wdl3RI-23" edge="1">
          <mxGeometry width="50" height="50" relative="1" as="geometry">
            <mxPoint x="485.0050000000001" y="1016.51504" as="sourcePoint" />
            <mxPoint x="610" y="1017" as="targetPoint" />
            <Array as="points">
              <mxPoint x="621" y="1017" />
            </Array>
          </mxGeometry>
        </mxCell>
        <mxCell id="qBgJKQQ8QN35u_Wdl3RI-13" value="[Успешная доставка]" style="text;html=1;align=center;verticalAlign=middle;whiteSpace=wrap;rounded=0;" parent="1" vertex="1">
          <mxGeometry x="491" y="990" width="130" height="30" as="geometry" />
        </mxCell>
        <mxCell id="qBgJKQQ8QN35u_Wdl3RI-15" value="[Неуспешная доставка]" style="text;html=1;align=center;verticalAlign=middle;whiteSpace=wrap;rounded=0;" parent="1" vertex="1">
          <mxGeometry x="280" y="990" width="151" height="30" as="geometry" />
        </mxCell>
        <mxCell id="qBgJKQQ8QN35u_Wdl3RI-16" value="Установка связи с курьером и разбирательство&amp;nbsp;" style="rounded=1;whiteSpace=wrap;html=1;" parent="1" vertex="1">
          <mxGeometry x="140" y="810" width="120" height="60" as="geometry" />
        </mxCell>
        <mxCell id="qBgJKQQ8QN35u_Wdl3RI-18" value="" style="endArrow=classic;html=1;rounded=0;exitX=0.5;exitY=0;exitDx=0;exitDy=0;entryX=0.999;entryY=0.489;entryDx=0;entryDy=0;entryPerimeter=0;" parent="1" source="qBgJKQQ8QN35u_Wdl3RI-16" target="qBgJKQQ8QN35u_Wdl3RI-20" edge="1">
          <mxGeometry width="50" height="50" relative="1" as="geometry">
            <mxPoint x="419" y="830" as="sourcePoint" />
            <mxPoint x="469" y="780" as="targetPoint" />
            <Array as="points">
              <mxPoint x="200" y="745" />
            </Array>
          </mxGeometry>
        </mxCell>
        <mxCell id="qBgJKQQ8QN35u_Wdl3RI-20" value="" style="html=1;whiteSpace=wrap;aspect=fixed;shape=isoRectangle;rotation=90;" parent="1" vertex="1">
          <mxGeometry x="403.33" y="700" width="56.67" height="34" as="geometry" />
        </mxCell>
        <mxCell id="qBgJKQQ8QN35u_Wdl3RI-21" value="" style="endArrow=classic;html=1;rounded=0;exitX=0.503;exitY=0.029;exitDx=0;exitDy=0;entryX=0;entryY=0.5;entryDx=0;entryDy=0;exitPerimeter=0;" parent="1" source="qBgJKQQ8QN35u_Wdl3RI-20" target="qBgJKQQ8QN35u_Wdl3RI-5" edge="1">
          <mxGeometry width="50" height="50" relative="1" as="geometry">
            <mxPoint x="400" y="749.64" as="sourcePoint" />
            <mxPoint x="449" y="749.64" as="targetPoint" />
          </mxGeometry>
        </mxCell>
        <mxCell id="qBgJKQQ8QN35u_Wdl3RI-23" value="" style="ellipse;shape=doubleEllipse;whiteSpace=wrap;html=1;aspect=fixed;" parent="1" vertex="1">
          <mxGeometry x="601" y="1090" width="40" height="40" as="geometry" />
        </mxCell>
        <mxCell id="qBgJKQQ8QN35u_Wdl3RI-25" value="" style="shape=waypoint;sketch=0;fillStyle=solid;size=6;pointerEvents=1;points=[];fillColor=none;resizable=0;rotatable=0;perimeter=centerPerimeter;snapToPoint=1;strokeWidth=14;" parent="1" vertex="1">
          <mxGeometry x="611" y="1100" width="20" height="20" as="geometry" />
        </mxCell>
        <mxCell id="Qs16zOOITwdM2hp1F24_-3" value="" style="edgeStyle=orthogonalEdgeStyle;rounded=0;orthogonalLoop=1;jettySize=auto;html=1;" parent="1" source="Qs16zOOITwdM2hp1F24_-1" target="da8WZ0yRhRTzq29A2Kj0-1" edge="1">
          <mxGeometry relative="1" as="geometry" />
        </mxCell>
        <mxCell id="Qs16zOOITwdM2hp1F24_-1" value="" style="shape=waypoint;sketch=0;fillStyle=solid;size=6;pointerEvents=1;points=[];fillColor=none;resizable=0;rotatable=0;perimeter=centerPerimeter;snapToPoint=1;strokeWidth=14;" parent="1" vertex="1">
          <mxGeometry x="419.01" y="160" width="20" height="20" as="geometry" />
        </mxCell>
        <mxCell id="Qs16zOOITwdM2hp1F24_-5" value="" style="endArrow=classic;html=1;rounded=0;entryX=0.5;entryY=1;entryDx=0;entryDy=0;" parent="1" source="qBgJKQQ8QN35u_Wdl3RI-10" target="qBgJKQQ8QN35u_Wdl3RI-16" edge="1">
          <mxGeometry width="50" height="50" relative="1" as="geometry">
            <mxPoint x="410" y="970" as="sourcePoint" />
            <mxPoint x="400" y="790" as="targetPoint" />
            <Array as="points">
              <mxPoint x="200" y="1020" />
            </Array>
          </mxGeometry>
        </mxCell>
        <mxCell id="Qs16zOOITwdM2hp1F24_-9" value="" style="edgeStyle=orthogonalEdgeStyle;rounded=0;orthogonalLoop=1;jettySize=auto;html=1;entryX=-0.04;entryY=0.524;entryDx=0;entryDy=0;entryPerimeter=0;" parent="1" source="Qs16zOOITwdM2hp1F24_-7" target="qBgJKQQ8QN35u_Wdl3RI-10" edge="1">
          <mxGeometry relative="1" as="geometry" />
        </mxCell>
        <mxCell id="Qs16zOOITwdM2hp1F24_-7" value="Отзыв клиента" style="rounded=1;whiteSpace=wrap;html=1;" parent="1" vertex="1">
          <mxGeometry x="410.01" y="870" width="120" height="60" as="geometry" />
        </mxCell>
      </root>
    </mxGraphModel>
  </diagram>
  <diagram id="Pweo-jNcYF1wondNiMzU" name="Классы">
    <mxGraphModel dx="1050" dy="621" grid="1" gridSize="10" guides="1" tooltips="1" connect="1" arrows="1" fold="1" page="1" pageScale="1" pageWidth="827" pageHeight="1169" math="0" shadow="0">
      <root>
        <mxCell id="0" />
        <mxCell id="1" parent="0" />
        <mxCell id="CmXZWZF0gOyxQuSmKXuf-1" value="Приложение" style="swimlane;fontStyle=0;align=center;verticalAlign=top;childLayout=stackLayout;horizontal=1;startSize=55;horizontalStack=0;resizeParent=1;resizeParentMax=0;resizeLast=0;collapsible=0;marginBottom=0;html=1;whiteSpace=wrap;" parent="1" vertex="1">
          <mxGeometry x="600" y="585" width="160" height="260" as="geometry" />
        </mxCell>
        <mxCell id="CmXZWZF0gOyxQuSmKXuf-5" value="&lt;div&gt;&lt;span style=&quot;background-color: initial;&quot;&gt;+НазваниеПриложения: string&lt;/span&gt;&lt;br&gt;&lt;/div&gt;+ВерсияПриложения: int" style="text;html=1;strokeColor=none;fillColor=none;align=left;verticalAlign=middle;spacingLeft=4;spacingRight=4;overflow=hidden;rotatable=0;points=[[0,0.5],[1,0.5]];portConstraint=eastwest;whiteSpace=wrap;" parent="CmXZWZF0gOyxQuSmKXuf-1" vertex="1">
          <mxGeometry y="55" width="160" height="75" as="geometry" />
        </mxCell>
        <mxCell id="CmXZWZF0gOyxQuSmKXuf-6" value="" style="line;strokeWidth=1;fillColor=none;align=left;verticalAlign=middle;spacingTop=-1;spacingLeft=3;spacingRight=3;rotatable=0;labelPosition=right;points=[];portConstraint=eastwest;" parent="CmXZWZF0gOyxQuSmKXuf-1" vertex="1">
          <mxGeometry y="130" width="160" height="100" as="geometry" />
        </mxCell>
        <mxCell id="94aDP6RFrUkgXKEKLQMK-4" value="+ОбработкаОбращений()" style="text;html=1;align=left;verticalAlign=middle;resizable=0;points=[];autosize=1;strokeColor=none;fillColor=none;" parent="CmXZWZF0gOyxQuSmKXuf-1" vertex="1">
          <mxGeometry y="230" width="160" height="30" as="geometry" />
        </mxCell>
        <mxCell id="CmXZWZF0gOyxQuSmKXuf-9" value="Курьер" style="swimlane;fontStyle=0;align=center;verticalAlign=top;childLayout=stackLayout;horizontal=1;startSize=55;horizontalStack=0;resizeParent=1;resizeParentMax=0;resizeLast=0;collapsible=0;marginBottom=0;html=1;whiteSpace=wrap;" parent="1" vertex="1">
          <mxGeometry x="90" y="490" width="180" height="250" as="geometry" />
        </mxCell>
        <mxCell id="CmXZWZF0gOyxQuSmKXuf-10" value="&lt;div&gt;+УникальныйНомерКурьера: int&lt;/div&gt;&lt;div&gt;&lt;span style=&quot;background-color: initial;&quot;&gt;+ИмяКурьера: string&lt;/span&gt;&lt;span style=&quot;background-color: initial; text-wrap: nowrap; color: rgba(0, 0, 0, 0); font-family: monospace; font-size: 0px;&quot;&gt;%3CmxGraphModel%3E%3Croot%3E%3CmxCell%20id%3D%220%22%2F%3E%3CmxCell%20id%3D%221%22%20parent%3D%220%22%2F%3E%3CmxCell%20id%3D%222%22%20value%3D%22%D0%9F%D1%80%D0%B8%D0%BB%D0%BE%D0%B6%D0%B5%D0%BD%D0%B8%D0%B5%22%20style%3D%22swimlane%3BfontStyle%3D0%3Balign%3Dcenter%3BverticalAlign%3Dtop%3BchildLayout%3DstackLayout%3Bhorizontal%3D1%3BstartSize%3D55%3BhorizontalStack%3D0%3BresizeParent%3D1%3BresizeParentMax%3D0%3BresizeLast%3D0%3Bcollapsible%3D0%3BmarginBottom%3D0%3Bhtml%3D1%3BwhiteSpace%3Dwrap%3B%22%20vertex%3D%221%22%20parent%3D%221%22%3E%3CmxGeometry%20x%3D%22330%22%20y%3D%22230%22%20width%3D%22140%22%20height%3D%22125%22%20as%3D%22geometry%22%2F%3E%3C%2FmxCell%3E%3CmxCell%20id%3D%223%22%20value%3D%22%26lt%3Bdiv%26gt%3B%2BId%3A%20int%26lt%3B%2Fdiv%26gt%3B%26lt%3Bdiv%26gt%3B%2B%D0%BD%D0%B0%D0%B7%D0%B2%D0%B0%D0%BD%D0%B8%D0%B5%3A%20string%26lt%3B%2Fdiv%26gt%3B%2B%D0%B2%D0%B5%D1%80%D1%81%D0%B8%D1%8F%3A%26amp%3Bnbsp%3B%22%20style%3D%22text%3Bhtml%3D1%3BstrokeColor%3Dnone%3BfillColor%3Dnone%3Balign%3Dleft%3BverticalAlign%3Dmiddle%3BspacingLeft%3D4%3BspacingRight%3D4%3Boverflow%3Dhidden%3Brotatable%3D0%3Bpoints%3D%5B%5B0%2C0.5%5D%2C%5B1%2C0.5%5D%5D%3BportConstraint%3Deastwest%3BwhiteSpace%3Dwrap%3B%22%20vertex%3D%221%22%20parent%3D%222%22%3E%3CmxGeometry%20y%3D%2255%22%20width%3D%22140%22%20height%3D%2245%22%20as%3D%22geometry%22%2F%3E%3C%2FmxCell%3E%3CmxCell%20id%3D%224%22%20value%3D%22%22%20style%3D%22line%3BstrokeWidth%3D1%3BfillColor%3Dnone%3Balign%3Dleft%3BverticalAlign%3Dmiddle%3BspacingTop%3D-1%3BspacingLeft%3D3%3BspacingRight%3D3%3Brotatable%3D0%3BlabelPosition%3Dright%3Bpoints%3D%5B%5D%3BportConstraint%3Deastwest%3B%22%20vertex%3D%221%22%20parent%3D%222%22%3E%3CmxGeometry%20y%3D%22100%22%20width%3D%22140%22%20height%3D%2225%22%20as%3D%22geometry%22%2F%3E%3C%2FmxCell%3E%3C%2Froot%3E%3C%2FmxGraphModel%3E&lt;/span&gt;&lt;br&gt;&lt;/div&gt;+МобильныйТелефонКурьера: int&lt;div&gt;&amp;nbsp;&lt;/div&gt;" style="text;html=1;strokeColor=none;fillColor=none;align=left;verticalAlign=middle;spacingLeft=4;spacingRight=4;overflow=hidden;rotatable=0;points=[[0,0.5],[1,0.5]];portConstraint=eastwest;whiteSpace=wrap;" parent="CmXZWZF0gOyxQuSmKXuf-9" vertex="1">
          <mxGeometry y="55" width="180" height="85" as="geometry" />
        </mxCell>
        <mxCell id="CmXZWZF0gOyxQuSmKXuf-11" value="" style="line;strokeWidth=1;fillColor=none;align=left;verticalAlign=middle;spacingTop=-1;spacingLeft=3;spacingRight=3;rotatable=0;labelPosition=right;points=[];portConstraint=eastwest;" parent="CmXZWZF0gOyxQuSmKXuf-9" vertex="1">
          <mxGeometry y="140" width="180" height="15" as="geometry" />
        </mxCell>
        <mxCell id="CmXZWZF0gOyxQuSmKXuf-12" value="&lt;div&gt;&lt;/div&gt;&lt;div&gt;+ВзятиеЗаказа()&lt;/div&gt;&lt;div&gt;+ОтменаВзятогоЗаказа()&amp;nbsp;&lt;/div&gt;&lt;div&gt;+ПодтверждениеДоставки()&lt;/div&gt;&lt;div&gt;+СвязьСПоддержкой()&lt;/div&gt;" style="text;html=1;strokeColor=none;fillColor=none;align=left;verticalAlign=middle;spacingLeft=4;spacingRight=4;overflow=hidden;rotatable=0;points=[[0,0.5],[1,0.5]];portConstraint=eastwest;whiteSpace=wrap;" parent="CmXZWZF0gOyxQuSmKXuf-9" vertex="1">
          <mxGeometry y="155" width="180" height="95" as="geometry" />
        </mxCell>
        <mxCell id="CmXZWZF0gOyxQuSmKXuf-13" value="Клиент" style="swimlane;fontStyle=0;align=center;verticalAlign=top;childLayout=stackLayout;horizontal=1;startSize=55;horizontalStack=0;resizeParent=1;resizeParentMax=0;resizeLast=0;collapsible=0;marginBottom=0;html=1;whiteSpace=wrap;" parent="1" vertex="1">
          <mxGeometry x="329" y="110" width="190" height="285" as="geometry" />
        </mxCell>
        <mxCell id="CmXZWZF0gOyxQuSmKXuf-14" value="&lt;div&gt;+УникальныйНомерПользователя: int&lt;/div&gt;&lt;div&gt;+ИмяПользователя: string&lt;span style=&quot;color: rgba(0, 0, 0, 0); font-family: monospace; font-size: 0px; text-wrap: nowrap; background-color: initial;&quot;&gt;%3CmxGraphModel%3E%3Croot%3E%3CmxCell%20id%3D%220%22%2F%3E%3CmxCell%20id%3D%221%22%20parent%3D%220%22%2F%3E%3CmxCell%20id%3D%222%22%20value%3D%22%D0%9F%D1%80%D0%B8%D0%BB%D0%BE%D0%B6%D0%B5%D0%BD%D0%B8%D0%B5%22%20style%3D%22swimlane%3BfontStyle%3D0%3Balign%3Dcenter%3BverticalAlign%3Dtop%3BchildLayout%3DstackLayout%3Bhorizontal%3D1%3BstartSize%3D55%3BhorizontalStack%3D0%3BresizeParent%3D1%3BresizeParentMax%3D0%3BresizeLast%3D0%3Bcollapsible%3D0%3BmarginBottom%3D0%3Bhtml%3D1%3BwhiteSpace%3Dwrap%3B%22%20vertex%3D%221%22%20parent%3D%221%22%3E%3CmxGeometry%20x%3D%22330%22%20y%3D%22230%22%20width%3D%22140%22%20height%3D%22125%22%20as%3D%22geometry%22%2F%3E%3C%2FmxCell%3E%3CmxCell%20id%3D%223%22%20value%3D%22%26lt%3Bdiv%26gt%3B%2BId%3A%20int%26lt%3B%2Fdiv%26gt%3B%26lt%3Bdiv%26gt%3B%2B%D0%BD%D0%B0%D0%B7%D0%B2%D0%B0%D0%BD%D0%B8%D0%B5%3A%20string%26lt%3B%2Fdiv%26gt%3B%2B%D0%B2%D0%B5%D1%80%D1%81%D0%B8%D1%8F%3A%26amp%3Bnbsp%3B%22%20style%3D%22text%3Bhtml%3D1%3BstrokeColor%3Dnone%3BfillColor%3Dnone%3Balign%3Dleft%3BverticalAlign%3Dmiddle%3BspacingLeft%3D4%3BspacingRight%3D4%3Boverflow%3Dhidden%3Brotatable%3D0%3Bpoints%3D%5B%5B0%2C0.5%5D%2C%5B1%2C0.5%5D%5D%3BportConstraint%3Deastwest%3BwhiteSpace%3Dwrap%3B%22%20vertex%3D%221%22%20parent%3D%222%22%3E%3CmxGeometry%20y%3D%2255%22%20width%3D%22140%22%20height%3D%2245%22%20as%3D%22geometry%22%2F%3E%3C%2FmxCell%3E%3CmxCell%20id%3D%224%22%20value%3D%22%22%20style%3D%22line%3BstrokeWidth%3D1%3BfillColor%3Dnone%3Balign%3Dleft%3BverticalAlign%3Dmiddle%3BspacingTop%3D-1%3BspacingLeft%3D3%3BspacingRight%3D3%3Brotatable%3D0%3BlabelPosition%3Dright%3Bpoints%3D%5B%5D%3BportConstraint%3Deastwest%3B%22%20vertex%3D%221%22%20parent%3D%222%22%3E%3CmxGeometry%20y%3D%22100%22%20width%3D%22140%22%20height%3D%2225%22%20as%3D%22geometry%22%2F%3E%3C%2FmxCell%3E%3C%2Froot%3E%3C%2FmxGraphModel%3E&lt;/span&gt;&lt;/div&gt;+НомерТелефонаПользователя: int&lt;div&gt;+ПочтаПользователя: string&lt;br&gt;&lt;div&gt;+АдресПользователя: string&lt;/div&gt;&lt;/div&gt;" style="text;html=1;strokeColor=none;fillColor=none;align=left;verticalAlign=middle;spacingLeft=4;spacingRight=4;overflow=hidden;rotatable=0;points=[[0,0.5],[1,0.5]];portConstraint=eastwest;whiteSpace=wrap;" parent="CmXZWZF0gOyxQuSmKXuf-13" vertex="1">
          <mxGeometry y="55" width="190" height="120" as="geometry" />
        </mxCell>
        <mxCell id="CmXZWZF0gOyxQuSmKXuf-15" value="" style="line;strokeWidth=1;fillColor=none;align=left;verticalAlign=middle;spacingTop=-1;spacingLeft=3;spacingRight=3;rotatable=0;labelPosition=right;points=[];portConstraint=eastwest;" parent="CmXZWZF0gOyxQuSmKXuf-13" vertex="1">
          <mxGeometry y="175" width="190" height="15" as="geometry" />
        </mxCell>
        <mxCell id="CmXZWZF0gOyxQuSmKXuf-16" value="&lt;div&gt;&lt;/div&gt;&lt;div&gt;+ДобавлениеБлюдВЗаказ()&lt;/div&gt;&lt;div&gt;+ОплатаЗаказа()&lt;br&gt;&lt;/div&gt;&lt;div&gt;+ОформлениеЗаказа()&lt;/div&gt;&lt;div&gt;+ОтслеживаниеСтатусаЗаказа()&lt;/div&gt;" style="text;html=1;strokeColor=none;fillColor=none;align=left;verticalAlign=middle;spacingLeft=4;spacingRight=4;overflow=hidden;rotatable=0;points=[[0,0.5],[1,0.5]];portConstraint=eastwest;whiteSpace=wrap;" parent="CmXZWZF0gOyxQuSmKXuf-13" vertex="1">
          <mxGeometry y="190" width="190" height="95" as="geometry" />
        </mxCell>
        <mxCell id="CmXZWZF0gOyxQuSmKXuf-20" value="+1" style="text;html=1;align=center;verticalAlign=middle;whiteSpace=wrap;rounded=0;" parent="1" vertex="1">
          <mxGeometry x="270" y="260" width="60" height="30" as="geometry" />
        </mxCell>
        <mxCell id="CmXZWZF0gOyxQuSmKXuf-22" value="+1" style="text;html=1;align=center;verticalAlign=middle;whiteSpace=wrap;rounded=0;" parent="1" vertex="1">
          <mxGeometry x="660" y="530" width="60" height="30" as="geometry" />
        </mxCell>
        <mxCell id="CmXZWZF0gOyxQuSmKXuf-23" value="+1..*" style="text;html=1;align=center;verticalAlign=middle;whiteSpace=wrap;rounded=0;" parent="1" vertex="1">
          <mxGeometry x="525" y="250" width="60" height="30" as="geometry" />
        </mxCell>
        <mxCell id="CmXZWZF0gOyxQuSmKXuf-24" value="+1..*" style="text;html=1;align=center;verticalAlign=middle;whiteSpace=wrap;rounded=0;" parent="1" vertex="1">
          <mxGeometry x="110" y="460" width="60" height="30" as="geometry" />
        </mxCell>
        <mxCell id="CmXZWZF0gOyxQuSmKXuf-25" value="+1" style="text;html=1;align=center;verticalAlign=middle;whiteSpace=wrap;rounded=0;" parent="1" vertex="1">
          <mxGeometry x="265" y="585" width="60" height="30" as="geometry" />
        </mxCell>
        <mxCell id="CmXZWZF0gOyxQuSmKXuf-26" value="+1" style="text;html=1;align=center;verticalAlign=middle;whiteSpace=wrap;rounded=0;" parent="1" vertex="1">
          <mxGeometry x="530" y="580" width="60" height="30" as="geometry" />
        </mxCell>
        <mxCell id="6BoPECvw1JVFNfSfK7NS-1" value="" style="endArrow=none;html=1;rounded=0;exitX=0.467;exitY=0.009;exitDx=0;exitDy=0;exitPerimeter=0;entryX=1;entryY=1;entryDx=0;entryDy=0;strokeWidth=5;" parent="1" source="CmXZWZF0gOyxQuSmKXuf-9" target="CmXZWZF0gOyxQuSmKXuf-20" edge="1">
          <mxGeometry width="50" height="50" relative="1" as="geometry">
            <mxPoint x="280" y="440" as="sourcePoint" />
            <mxPoint x="330" y="390" as="targetPoint" />
            <Array as="points">
              <mxPoint x="174" y="290" />
            </Array>
          </mxGeometry>
        </mxCell>
        <mxCell id="6BoPECvw1JVFNfSfK7NS-2" value="" style="endArrow=none;html=1;rounded=0;exitX=0.5;exitY=0;exitDx=0;exitDy=0;entryX=0.991;entryY=-0.059;entryDx=0;entryDy=0;entryPerimeter=0;strokeWidth=5;" parent="1" source="CmXZWZF0gOyxQuSmKXuf-1" target="CmXZWZF0gOyxQuSmKXuf-16" edge="1">
          <mxGeometry width="50" height="50" relative="1" as="geometry">
            <mxPoint x="630" y="482" as="sourcePoint" />
            <mxPoint x="777" y="280" as="targetPoint" />
            <Array as="points">
              <mxPoint x="680" y="293" />
            </Array>
          </mxGeometry>
        </mxCell>
        <mxCell id="6BoPECvw1JVFNfSfK7NS-3" value="" style="endArrow=none;html=1;rounded=0;exitX=1.004;exitY=0;exitDx=0;exitDy=0;exitPerimeter=0;strokeWidth=5;" parent="1" source="CmXZWZF0gOyxQuSmKXuf-12" edge="1">
          <mxGeometry width="50" height="50" relative="1" as="geometry">
            <mxPoint x="194" y="512" as="sourcePoint" />
            <mxPoint x="600" y="645" as="targetPoint" />
            <Array as="points" />
          </mxGeometry>
        </mxCell>
      </root>
    </mxGraphModel>
  </diagram>
</mxfile>
